{"title":"ACT OF VALOR (2012) HDRip-Cropped [MKV AC3][RoB]PR3DATOR RG","uid":7140810,"size":1768198910,"categoryP":"video","categoryS":"movies","magnet":"?xt=urn:btih:d1cad416f34b91f5f557a9278330625dc0c29637&amp;dn=ACT+OF+VALOR+%282012%29+HDRip-Cropped+%5BMKV+AC3%5D%5BRoB%5DPR3DATOR+RG&amp;tr=udp%3A%2F%2Ftracker.openbittorrent.com%3A80&amp;tr=udp%3A%2F%2Fopen.demonii.com%3A1337&amp;tr=udp%3A%2F%2Ftracker.coppersurfer.tk%3A6969&amp;tr=udp%3A%2F%2Fexodus.desync.com%3A6969","seeders":1,"leechers":0,"uploader":"BLOVES","files":5,"time":1332996363,"description":"Movies : Action : TV Rip : English\nIMDb; http://www.imdb.com/title/tt1591479/\nSAMPLE INCLUDED.\n &lt;a href=&quot;\nhttp://img220.imageshack.us/img220/1295/mv5bmty3ndqxmdazm15bml5.jpg&quot; rel=&quot;nofollow&quot; target=&quot;_NEW&quot;&gt;\nhttp://img220.imageshack.us/img220/1295/mv5bmty3ndqxmdazm15bml5.jpg&lt;/a&gt;\n\nComplete name : ACT OF VALOR (2012) HDRip [MKV AC3][RoB]PR3DATOR RG\nFormat : Matroska\nFormat version : Version 2\nFile size : 1.62 GiB\nDuration : 1h 49mn\nOverall bit rate : 2 115 Kbps\nWriting application : Lavf51.12.1\nWriting library : Lavf51.12.1\n\nVideo\nID : 1\nFormat : AVC\nFormat/Info : Advanced Video Codec\nFormat profile : &lt;a class=&quot;__cf_email__&quot; href=&quot;/cdn-cgi/l/email-protection&quot; data-cfemail=&quot;85c7e4f6e0e9ecebe0c5c9b6abb5&quot;&gt;[email&amp;#160;protected]&lt;/a&gt;&lt;script cf-hash='f9e31' type=&quot;text/javascript&quot;&gt;\n/* &lt;![CDATA[ */!function(){try{var t=&quot;currentScript&quot;in document?document.currentScript:function(){for(var t=document.getElementsByTagName(&quot;script&quot;),e=t.length;e--;)if(t[e].getAttribute(&quot;cf-hash&quot;))return t[e]}();if(t&amp;&amp;t.previousSibling){var e,r,n,i,c=t.previousSibling,a=c.getAttribute(&quot;data-cfemail&quot;);if(a){for(e=&quot;&quot;,r=parseInt(a.substr(0,2),16),n=2;a.length-n;n+=2)i=parseInt(a.substr(n,2),16)^r,e+=String.fromCharCode(i);e=document.createTextNode(e),c.parentNode.replaceChild(e,c)}}}catch(u){}}();/* ]]&gt; */&lt;/script&gt;\nFormat settings, CABAC : No\nFormat settings, ReFrames : 5 frames\nFormat settings, GOP : M=1, N=12\nCodec ID : V_MPEG4/ISO/AVC\nDuration : 1h 49mn\nBit rate : 1 881 Kbps\nWidth : 720 pixels\nHeight : 280 pixels\nDisplay aspect ratio : 2.571\nFrame rate mode : Variable\nFrame rate : 29.970 fps\nColor space : YUV\nChroma subsampling : 4:2:0\nBit depth : 8 bits\nScan type : Progressive\nBits/(Pixel*Frame) : 0.311\nStream size : 1.44 GiB (89%)\nLanguage : English\n\nAudio\nID : 2\nFormat : AC-3\nFormat/Info : Audio Coding 3\nMode extension : CM (complete main)\nCodec ID : A_AC3\nDuration : 1h 49mn\nBit rate mode : Constant\nBit rate : 192 Kbps\nChannel(s) : 2 channels\nChannel positions : Front: L R\nSampling rate : 44.1 KHz\nBit depth : 16 bits\nCompression mode : Lossy\nStream size : 151 MiB (9%)\nLanguage : English","torrent":{"xt":"urn:btih:d1cad416f34b91f5f557a9278330625dc0c29637","amp;dn":"ACT+OF+VALOR+%282012%29+HDRip-Cropped+%5BMKV+AC3%5D%5BRoB%5DPR3DATOR+RG","amp;tr":["udp%3A%2F%2Ftracker.openbittorrent.com%3A80","udp%3A%2F%2Fopen.demonii.com%3A1337","udp%3A%2F%2Ftracker.coppersurfer.tk%3A6969","udp%3A%2F%2Fexodus.desync.com%3A6969"],"infoHash":"d1cad416f34b91f5f557a9278330625dc0c29637","infoHashBuffer":{"type":"Buffer","data":[209,202,212,22,243,75,145,245,245,87,169,39,131,48,98,93,192,194,150,55]},"announce":[],"urlList":[]}}